<svg width="1400" height="980" viewBox="0 0 1400 980" fill="none" xmlns="http://www.w3.org/2000/svg">
  <rect width="1400" height="980" rx="40" fill="#F8F2E9"/>
  <rect x="44" y="44" width="1312" height="892" rx="34" fill="#FFFBF5" stroke="#1F4C42" stroke-opacity="0.14" stroke-width="4"/>
  <rect x="84" y="84" width="1232" height="94" rx="28" fill="#123D35"/>
  <circle cx="138" cy="130" r="10" fill="#F8F2E9" fill-opacity="0.6"/>
  <circle cx="168" cy="130" r="10" fill="#F8F2E9" fill-opacity="0.35"/>
  <circle cx="198" cy="130" r="10" fill="#F8F2E9" fill-opacity="0.2"/>
  <text x="254" y="120" fill="#FFF8EE" font-family="Georgia, serif" font-size="24" letter-spacing="3">MISSION CONTROL</text>
  <text x="254" y="154" fill="#FFF8EE" fill-opacity="0.72" font-family="Arial, sans-serif" font-size="20">Gap analysis pipeline, live</text>

  <rect x="84" y="212" width="720" height="328" rx="30" fill="#F5EEE3" stroke="#1F4C42" stroke-opacity="0.12" stroke-width="4"/>
  <text x="126" y="266" fill="#123D35" font-family="Arial, sans-serif" font-size="20" letter-spacing="3">PIPELINE STATUS</text>
  <text x="126" y="326" fill="#1B1714" font-family="Georgia, serif" font-size="58">84% complete</text>
  <rect x="126" y="368" width="636" height="24" rx="12" fill="#E5DAC9"/>
  <rect x="126" y="368" width="534" height="24" rx="12" fill="#C8653C"/>
  <rect x="126" y="428" width="140" height="72" rx="20" fill="#123D35"/>
  <text x="156" y="474" fill="#FFF8EE" font-family="Arial, sans-serif" font-size="22">Extraction</text>
  <rect x="286" y="428" width="140" height="72" rx="20" fill="#1F574C"/>
  <text x="322" y="474" fill="#FFF8EE" font-family="Arial, sans-serif" font-size="22">Analysis</text>
  <rect x="446" y="428" width="140" height="72" rx="20" fill="#2F6F62"/>
  <text x="490" y="474" fill="#FFF8EE" font-family="Arial, sans-serif" font-size="22">Revision</text>
  <rect x="606" y="428" width="140" height="72" rx="20" fill="#D6C5AF"/>
  <text x="650" y="474" fill="#4D433C" font-family="Arial, sans-serif" font-size="22">Roadmap</text>

  <rect x="840" y="212" width="476" height="328" rx="30" fill="#123D35"/>
  <text x="878" y="264" fill="#FFF8EE" fill-opacity="0.72" font-family="Arial, sans-serif" font-size="20" letter-spacing="3">NIST COVERAGE</text>
  <circle cx="1078" cy="392" r="114" fill="#19493F"/>
  <circle cx="1078" cy="392" r="80" fill="#F8F2E9"/>
  <path d="M1078 278 A114 114 0 1 1 986 338" stroke="#C8653C" stroke-width="34" stroke-linecap="round"/>
  <text x="1030" y="398" fill="#123D35" font-family="Georgia, serif" font-size="56">72%</text>
  <text x="1018" y="432" fill="#123D35" fill-opacity="0.74" font-family="Arial, sans-serif" font-size="20">addressed</text>
  <rect x="878" y="466" width="184" height="22" rx="11" fill="#F6EBDC"/>
  <rect x="878" y="466" width="136" height="22" rx="11" fill="#D4B16E"/>
  <rect x="1084" y="466" width="184" height="22" rx="11" fill="#F6EBDC"/>
  <rect x="1084" y="466" width="108" height="22" rx="11" fill="#C8653C"/>

  <rect x="84" y="576" width="392" height="300" rx="30" fill="#FFFFFF" stroke="#1F4C42" stroke-opacity="0.12" stroke-width="4"/>
  <text x="122" y="632" fill="#123D35" font-family="Arial, sans-serif" font-size="20" letter-spacing="3">ARTIFACTS</text>
  <rect x="122" y="670" width="316" height="52" rx="18" fill="#F4EEE4"/>
  <text x="148" y="703" fill="#1B1714" font-family="Arial, sans-serif" font-size="22">policy_revision_report.md</text>
  <rect x="122" y="740" width="316" height="52" rx="18" fill="#F4EEE4"/>
  <text x="148" y="773" fill="#1B1714" font-family="Arial, sans-serif" font-size="22">roadmap_summary.md</text>
  <rect x="122" y="810" width="316" height="34" rx="17" fill="#123D35"/>
  <text x="164" y="833" fill="#FFF8EE" font-family="Arial, sans-serif" font-size="18">Open run folder</text>

  <rect x="504" y="576" width="408" height="300" rx="30" fill="#FFF8EE" stroke="#1F4C42" stroke-opacity="0.12" stroke-width="4"/>
  <text x="544" y="632" fill="#123D35" font-family="Arial, sans-serif" font-size="20" letter-spacing="3">REVISION DIFF</text>
  <line x1="556" y1="686" x2="860" y2="686" stroke="#D8C6AF" stroke-width="10" stroke-linecap="round"/>
  <line x1="556" y1="726" x2="812" y2="726" stroke="#D8C6AF" stroke-width="10" stroke-linecap="round"/>
  <rect x="556" y="758" width="232" height="24" rx="12" fill="#D9F0E5"/>
  <rect x="556" y="802" width="178" height="24" rx="12" fill="#F4D1C5"/>
  <text x="804" y="776" fill="#285E53" font-family="Arial, sans-serif" font-size="18">Added clauses</text>
  <text x="748" y="820" fill="#9C5031" font-family="Arial, sans-serif" font-size="18">Needs review</text>

  <rect x="940" y="576" width="376" height="300" rx="30" fill="#123D35"/>
  <text x="978" y="632" fill="#FFF8EE" fill-opacity="0.72" font-family="Arial, sans-serif" font-size="20" letter-spacing="3">ROADMAP</text>
  <rect x="978" y="674" width="300" height="58" rx="18" fill="#FFF8EE" fill-opacity="0.12"/>
  <text x="1012" y="710" fill="#FFF8EE" font-family="Arial, sans-serif" font-size="20">Tier 1   Close access control gaps</text>
  <rect x="978" y="748" width="300" height="58" rx="18" fill="#FFF8EE" fill-opacity="0.12"/>
  <text x="1012" y="784" fill="#FFF8EE" font-family="Arial, sans-serif" font-size="20">Tier 2   Update logging standard</text>
  <rect x="978" y="822" width="300" height="18" rx="9" fill="#FFF8EE" fill-opacity="0.22"/>
  <rect x="978" y="822" width="184" height="18" rx="9" fill="#C8653C"/>
</svg>
